<svg width="8" height="8" viewBox="0 0 8 8" fill="none" xmlns="http://www.w3.org/2000/svg">
<path d="M4.01197 5.46742H4.73707V6.19252H4.01197V5.46742ZM4.37452 0.391724C2.37325 0.391724 0.749023 2.01595 0.749023 4.01722C0.749023 6.0185 2.37325 7.64272 4.37452 7.64272C6.3758 7.64272 8.00002 6.0185 8.00002 4.01722C8.00002 2.01595 6.3758 0.391724 4.37452 0.391724ZM4.37452 6.91762C2.77568 6.91762 1.47412 5.61607 1.47412 4.01722C1.47412 2.41838 2.77568 1.11682 4.37452 1.11682C5.97337 1.11682 7.27492 2.41838 7.27492 4.01722C7.27492 5.61607 5.97337 6.91762 4.37452 6.91762ZM4.37452 1.84192C3.57329 1.84192 2.92432 2.49089 2.92432 3.29212H3.64942C3.64942 2.89332 3.97572 2.56702 4.37452 2.56702C4.77333 2.56702 5.09962 2.89332 5.09962 3.29212C5.09962 4.01722 4.01197 3.92658 4.01197 5.10487H4.73707C4.73707 4.28913 5.82472 4.1985 5.82472 3.29212C5.82472 2.49089 5.17576 1.84192 4.37452 1.84192Z" fill="#B0B0B0"/>
</svg>
